<?xml version="1.0" encoding="utf-8"?>
<!-- Svg Vector Icons : http://www.onlinewebfonts.com/icon -->
<!DOCTYPE svg PUBLIC "-//W3C//DTD SVG 1.1//EN" "http://www.w3.org/Graphics/SVG/1.1/DTD/svg11.dtd">
<svg version="1.1" xmlns="http://www.w3.org/2000/svg" xmlns:xlink="http://www.w3.org/1999/xlink" x="0px" y="0px" viewBox="0 0 1000 1000" enable-background="new 0 0 1000 1000" xml:space="preserve">
<metadata> Svg Vector Icons : http://www.onlinewebfonts.com/icon </metadata>
<g><g transform="translate(0.000000,512.000000) scale(0.100000,-0.100000)"><path d="M4530.1,5007.9C3377.4,4889,2339.7,4398,1530.4,3588.6C753.6,2811.8,285.6,1858.6,124.4,723.1c-32.6-226.3-32.6-982,0-1208.3c163-1137.4,629.1-2086.8,1405.9-2865.5c778.7-776.8,1728.1-1242.9,2865.5-1405.9c226.3-32.6,982-32.6,1208.3,0c790.2,113.2,1461.5,360.6,2100.2,778.7c521.7,341.4,1051.1,870.8,1392.5,1392.5c418.1,640.6,665.5,1310,778.7,2100.2c32.6,226.3,32.6,982,0,1208.3c-163,1137.4-629.1,2086.8-1405.9,2865.5c-759.5,759.5-1687.8,1223.7-2779.2,1392.5C5448.8,5017.5,4775.6,5034.8,4530.1,5007.9z M5642.5,4676.1C6638,4528.5,7552.8,4070,8252.9,3368.1c725-728.8,1170-1636,1313.8-2673.7c15.4-101.7,26.9-354.8,26.9-575.4c0-414.3-21.1-613.8-97.8-978.2c-107.4-506.4-368.3-1122-656-1553.6c-749.9-1123.9-1912.2-1849-3264.4-2035c-235.9-34.5-914.9-34.5-1150.8,0c-725,99.7-1390.5,349.1-1975.5,740.4C1344.3-2969,619.3-1800.9,431.3-456.4c-32.6,237.8-32.6,934.1,1.9,1160.4c220.6,1509.5,1076,2752.3,2380.2,3462c558.1,303,1083.7,458.4,1841.3,544.7C4794.8,4726,5458.4,4703,5642.5,4676.1z"/><path d="M4372.8,4300.2c-1492.2-226.3-2744.6-1223.7-3306.6-2631.5C682.6,704,682.6-466,1066.2-1430.8c224.4-560.1,514-999.3,949.4-1434.7c627.2-627.2,1384.8-1022.3,2265.1-1183.4c197.5-36.4,299.2-42.2,719.2-42.2c420,0,521.7,5.8,719.2,42.2c880.4,161.1,1638,556.2,2265.2,1183.4c627.2,627.2,1022.3,1384.8,1183.4,2265.2c36.5,197.5,42.2,299.2,42.2,719.2c0,420-5.8,521.7-42.2,719.2c-161.1,880.4-556.2,1638-1183.4,2265.2C7322.7,3765.1,6528.6,4166,5615.7,4300.2C5270.4,4350.1,4708.5,4350.1,4372.8,4300.2z M7512.6,1745.4v-159.2L6256.3,776.8L5000-34.5L3770.6,753.8c-675.1,431.5-1240.9,792.1-1256.3,797.9c-21.1,7.7-26.9,49.9-26.9,180.3v170.7H5000h2512.6V1745.4z M7512.6-76.7c-1.9-1018.5-5.8-1285.1-24.9-1262c-182.2,232.1-1288.9,1695.5-1287,1705.1c1.9,13.4,1275.5,842,1298.5,843.9C7506.8,1212.2,7512.6,631.1,7512.6-76.7z M3174.1,771.1c370.2-237.8,631-416.2,623.3-427.7c-32.6-51.8-1292.7-1701.3-1300.4-1701.3c-5.8,0-9.6,575.4-9.6,1277.4c0,1068.3,3.8,1275.5,26.9,1267.8C2527.7,1181.5,2825,993.6,3174.1,771.1z M4564.6-118.9l435.4-280l462.3,299.2c255.1,163,469.9,291.5,479.5,281.9c7.7-7.7,326-425.8,707.7-926.4l692.4-911.1l-1170-5.7c-644.4-1.9-1697.4-1.9-2339.9,0l-1168.1,5.7l702,922.6C3916.3-9.5,4075.5,188,4098.5,176.5C4115.8,166.9,4324.9,34.6,4564.6-118.9z"/></g></g>
</svg>